<svg width="84" height="84" viewBox="0 0 84 84" fill="none" xmlns="http://www.w3.org/2000/svg">
<g filter="url(#filter0_b_2003_224)">
<rect width="84" height="84" rx="42" fill="white" fill-opacity="0.22"/>
<g clip-path="url(#clip0_2003_224)">
<rect x="24.5" y="24.5" width="35" height="35" fill="url(#paint0_linear_2003_224)"/>
<path d="M72 42C72 49.9565 68.8393 57.5871 63.2132 63.2132C57.5871 68.8393 49.9565 72 42 72C34.0435 72 26.4129 68.8393 20.7868 63.2132C15.1607 57.5871 12 49.9565 12 42C12 34.0435 15.1607 26.4129 20.7868 20.7868C26.4129 15.1607 34.0435 12 42 12C49.9565 12 57.5871 15.1607 63.2132 20.7868C68.8393 26.4129 72 34.0435 72 42ZM37.4625 31.0987C37.1821 30.8991 36.8522 30.7805 36.509 30.7559C36.1657 30.7314 35.8222 30.8017 35.5163 30.9594C35.2103 31.117 34.9537 31.3558 34.7744 31.6496C34.5951 31.9434 34.5002 32.2808 34.5 32.625V51.375C34.5002 51.7192 34.5951 52.0566 34.7744 52.3504C34.9537 52.6442 35.2103 52.883 35.5163 53.0406C35.8222 53.1983 36.1657 53.2686 36.509 53.2441C36.8522 53.2195 37.1821 53.1009 37.4625 52.9012L50.5875 43.5262C50.8306 43.3528 51.0287 43.1238 51.1654 42.8583C51.3021 42.5929 51.3734 42.2986 51.3734 42C51.3734 41.7014 51.3021 41.4071 51.1654 41.1417C51.0287 40.8762 50.8306 40.6472 50.5875 40.4737L37.4625 31.0987Z" fill="white"/>
</g>
</g>
<defs>
<filter id="filter0_b_2003_224" x="-10" y="-10" width="104" height="104" filterUnits="userSpaceOnUse" color-interpolation-filters="sRGB">
<feFlood flood-opacity="0" result="BackgroundImageFix"/>
<feGaussianBlur in="BackgroundImageFix" stdDeviation="5"/>
<feComposite in2="SourceAlpha" operator="in" result="effect1_backgroundBlur_2003_224"/>
<feBlend mode="normal" in="SourceGraphic" in2="effect1_backgroundBlur_2003_224" result="shape"/>
</filter>
<linearGradient id="paint0_linear_2003_224" x1="24.5" y1="24.5" x2="59.5" y2="59.5" gradientUnits="userSpaceOnUse">
<stop stop-color="#245D51"/>
<stop offset="1" stop-color="#16CCA6"/>
</linearGradient>
<clipPath id="clip0_2003_224">
<rect width="60" height="60" fill="white" transform="translate(12 12)"/>
</clipPath>
</defs>
</svg>
